<?xml version="1.0" encoding="iso-8859-1"?>
<!-- Generator: Adobe Illustrator 19.0.0, SVG Export Plug-In . SVG Version: 6.00 Build 0)  -->
<svg version="1.1" id="Layer_1" xmlns="http://www.w3.org/2000/svg" xmlns:xlink="http://www.w3.org/1999/xlink" x="0px" y="0px"
	 viewBox="0 0 512.107 512.107" style="enable-background:new 0 0 512.107 512.107;" xml:space="preserve">
<g>
	<g>
		<g>
			<path d="M394.88,48.107C330.027,48,277.44,100.48,277.333,165.227c-0.107,64.853,52.373,117.44,117.12,117.547
				c38.4,0.107,74.347-18.667,96.32-50.133v111.04c0,54.507-42.987,98.987-95.787,98.987c-5.76,0-10.667,4.587-10.88,10.347
				C384,458.987,388.8,464,394.773,464c64.64,0,117.333-53.973,117.333-120.427V165.44
				C512.107,100.693,459.627,48.213,394.88,48.107z M394.987,261.44c-53.013,0-96-42.987-96-96c0-53.013,42.987-96,96-96
				c53.013,0,96,42.987,96,96C490.88,218.453,448,261.44,394.987,261.44z"/>
			<path d="M117.547,48.107C52.693,48,0.107,100.48,0,165.333c-0.107,64.853,52.373,117.333,117.227,117.44
				c38.4,0.107,74.347-18.667,96.32-50.133v111.04c0,54.507-42.987,98.987-95.787,98.987c-5.76,0-10.667,4.587-10.88,10.347
				c-0.107,5.973,4.693,10.987,10.667,10.987c64.64,0,117.333-53.973,117.333-120.427V165.44
				C234.773,100.693,182.294,48.213,117.547,48.107z M117.76,261.44c-53.013,0-96-42.987-96-96c0-53.013,42.987-96,96-96
				c53.013,0,96,42.987,96,96C213.654,218.453,170.773,261.44,117.76,261.44z"/>
		</g>
	</g>
</g>
<g>
</g>
<g>
</g>
<g>
</g>
<g>
</g>
<g>
</g>
<g>
</g>
<g>
</g>
<g>
</g>
<g>
</g>
<g>
</g>
<g>
</g>
<g>
</g>
<g>
</g>
<g>
</g>
<g>
</g>
</svg>
